<svg xmlns="http://www.w3.org/2000/svg" viewBox="0 0 127.62 127.62"><defs><style>.cls-1{fill:#383a4b;}</style></defs><g id="레이어_2" data-name="레이어 2"><g id="레이어_1-2" data-name="레이어 1"><path class="cls-1" d="M63.81,0a63.81,63.81,0,1,0,63.81,63.81A63.81,63.81,0,0,0,63.81,0Zm0,110.73A46.92,46.92,0,0,1,16.9,63.81a48.21,48.21,0,0,1,.58-7.45h0s7.2,11.33,23.76,4.18c0,0,8.1-4.14,15.62,0A17.22,17.22,0,0,0,75,60.73s6.77-4.33,16.18.19,19.6.37,19.6.37c0,.84,0,1.68,0,2.52A46.92,46.92,0,0,1,63.81,110.73Z"/></g></g></svg>